HIERARCHY
ROOT Hips
{
	OFFSET 0.000000 0.000000 0.000000
	CHANNELS 6 Xposition Yposition Zposition Zrotation Yrotation Xrotation 
	JOINT LeftUpLeg_virtual
	{
		OFFSET 0.000000 0.000000 0.000000
		CHANNELS 3 Zrotation Yrotation Xrotation
		JOINT LeftUpLeg
		{
			OFFSET 8.479694 -4.795517 -0.379053
			CHANNELS 3 Zrotation Yrotation Xrotation
			JOINT LeftLeg
			{
				OFFSET 0.485052 -32.551468 0.112863
				CHANNELS 3 Zrotation Yrotation Xrotation
				JOINT LeftFoot
				{
					OFFSET 0.438033 -32.635670 -3.012641
					CHANNELS 3 Zrotation Yrotation Xrotation
					JOINT LeftToeBase
					{
						OFFSET 0.970169 -13.225353 11.864223
						CHANNELS 3 Zrotation Yrotation Xrotation
						End Site
						{
							OFFSET 0.000000 0.000000 0.000000
						}
					}
				}
			}
		}
	}
	JOINT RightUpLeg_virtual
	{
		OFFSET 0.000000 0.000000 0.000000
		CHANNELS 3 Zrotation Yrotation Xrotation
		JOINT RightUpLeg
		{
			OFFSET -8.479694 -4.795517 -0.379053
			CHANNELS 3 Zrotation Yrotation Xrotation
			JOINT RightLeg
			{
				OFFSET -0.484100 -32.551483 0.112903
				CHANNELS 3 Zrotation Yrotation Xrotation
				JOINT RightFoot
				{
					OFFSET -0.438985 -32.635651 -3.012681
					CHANNELS 3 Zrotation Yrotation Xrotation
					JOINT RightToeBase
					{
						OFFSET -0.970169 -13.225354 11.864223
						CHANNELS 3 Zrotation Yrotation Xrotation
						End Site
						{
							OFFSET 0.000000 0.000000 0.000000
						}
					}
				}
			}
		}
	}
	JOINT Spine_virtual
	{
		OFFSET 0.000000 0.000000 0.000000
		CHANNELS 3 Zrotation Yrotation Xrotation
		JOINT Spine
		{
			OFFSET 0.000000 7.722015 1.166203
			CHANNELS 3 Zrotation Yrotation Xrotation
			JOINT Spine1
			{
				OFFSET 0.000000 12.024086 0.248766
				CHANNELS 3 Zrotation Yrotation Xrotation
				JOINT Spine2
				{
					OFFSET -0.000000 11.503036 -0.491240
					CHANNELS 3 Zrotation Yrotation Xrotation
					JOINT Neck_virtual
					{
						OFFSET 0.000000 0.000000 0.000000
						CHANNELS 3 Zrotation Yrotation Xrotation
						JOINT Neck
						{
							OFFSET 0.000000 18.430687 -3.123054
							CHANNELS 3 Zrotation Yrotation Xrotation
							JOINT Head
							{
								OFFSET -0.000000 9.051071 1.034021
								CHANNELS 3 Zrotation Yrotation Xrotation
								End Site
								{
									OFFSET 0.000000 0.000000 0.000000
								}
							}
						}
					}
					JOINT LeftShoulder_virtual
					{
						OFFSET 0.000000 0.000000 0.000000
						CHANNELS 3 Zrotation Yrotation Xrotation
						JOINT LeftShoulder
						{
							OFFSET 6.197824 13.665230 -4.064723
							CHANNELS 3 Zrotation Yrotation Xrotation
							JOINT LeftArm
							{
								OFFSET 7.778132 -0.187073 -1.709282
								CHANNELS 3 Zrotation Yrotation Xrotation
								JOINT LeftForeArm
								{
									OFFSET 21.954697 0.000000 -2.041093
									CHANNELS 3 Zrotation Yrotation Xrotation
									JOINT LeftHand
									{
										OFFSET 22.992908 0.000000 -0.870901
										CHANNELS 3 Zrotation Yrotation Xrotation
										End Site
										{
											OFFSET 0.000000 0.000000 0.000000
										}
									}
								}
							}
						}
					}
					JOINT RightShoulder_virtual
					{
						OFFSET 0.000000 0.000000 0.000000
						CHANNELS 3 Zrotation Yrotation Xrotation
						JOINT RightShoulder
						{
							OFFSET -6.197824 13.665230 -4.064723
							CHANNELS 3 Zrotation Yrotation Xrotation
							JOINT RightArm
							{
								OFFSET -7.778132 -0.187073 -1.709282
								CHANNELS 3 Zrotation Yrotation Xrotation
								JOINT RightForeArm
								{
									OFFSET -21.954697 0.000000 -2.041093
									CHANNELS 3 Zrotation Yrotation Xrotation
									JOINT RightHand
									{
										OFFSET -22.992908 0.000000 -0.870901
										CHANNELS 3 Zrotation Yrotation Xrotation
										End Site
										{
											OFFSET 0.000000 0.000000 0.000000
										}
									}
								}
							}
						}
					}
				}
			}
		}
	}
}
MOTION
Frames: 14
Frame Time: 0.033333
-14.590233 81.019951 75.905472 -179.924477 1.072165 -179.980771 -4.426307 -1.683249 9.739618 -2.836457 7.037629 -29.048603 9.238183 5.452658 28.339425 -0.386929 -11.426927 -6.959181 0.000000 0.000000 0.000000 -0.042466 -1.778169 7.589829 -1.088544 1.002047 -27.785165 -1.551757 3.225064 32.128267 6.822960 7.843893 -6.086236 0.000000 0.000000 0.000000 -0.642846 1.300027 -1.855830 -1.016731 -1.114990 -2.257779 -0.751208 -0.931617 9.530471 -0.021711 -0.005811 -0.030831 -1.178290 0.456565 10.703281 1.601744 -2.567079 -11.653129 0.000000 0.000000 0.000000 0.536308 1.005870 8.623174 -5.612200 -3.370778 3.882306 -64.013762 1.761458 9.700571 5.296659 -32.889584 5.869221 0.000000 0.000000 0.000000 -3.684359 2.542896 7.856201 30.247704 -1.218044 5.353877 52.894542 2.717519 16.757138 -5.573926 22.339672 -5.405502 0.000000 0.000000 0.000000 
-14.991334 81.003944 76.025459 -179.949830 1.113797 179.957972 -4.524189 -1.927642 9.587748 -3.161177 7.322544 -28.935304 9.175202 5.556051 28.585798 -0.480663 -11.566137 -6.505503 0.000000 0.000000 0.000000 -0.147840 -1.925930 7.465521 -1.294141 1.000019 -27.966747 -1.544729 3.369653 32.367276 6.810470 7.689522 -6.109554 0.000000 0.000000 0.000000 -0.651118 1.215922 -2.006736 -1.017929 -1.171009 -1.989396 -0.756565 -0.929043 9.480309 0.011296 0.063962 0.039444 -1.264651 0.390885 10.604669 1.585970 -2.627200 -11.720693 0.000000 0.000000 0.000000 0.390110 1.085855 8.582676 -5.630871 -3.718922 3.831370 -63.867883 0.543748 9.729504 5.259661 -33.540081 5.784956 0.000000 0.000000 0.000000 -3.762998 2.415579 7.769694 30.078907 -1.040350 5.408538 52.669447 3.175725 16.735594 -5.653839 22.465486 -5.529544 0.000000 0.000000 0.000000 
-15.455906 80.963058 76.226624 -179.992328 1.158189 179.964215 -4.600760 -1.964305 9.277422 -3.477653 7.244220 -28.768340 9.234354 5.703767 28.589543 -0.255241 -11.416855 -6.543155 0.000000 0.000000 0.000000 -0.177984 -1.820642 7.215634 -1.661123 0.879201 -28.216500 -1.481556 3.546816 32.883884 7.106457 7.832723 -5.798877 0.000000 0.000000 0.000000 -0.614139 1.144878 -2.170932 -0.987350 -1.196403 -1.658513 -0.899039 -0.965744 9.433221 -0.020026 0.007588 0.013583 -1.305457 0.446366 10.566405 1.461079 -2.568440 -11.817023 0.000000 0.000000 0.000000 0.379185 0.942318 8.436098 -5.766991 -3.938309 3.843109 -63.495740 -1.209743 9.754468 5.178995 -34.282697 5.751758 0.000000 0.000000 0.000000 -3.808239 2.532362 7.710359 29.958951 -0.827201 5.483033 52.412532 3.805463 16.663442 -5.638366 23.039003 -5.464003 0.000000 0.000000 0.000000 
-15.900285 80.925278 76.444466 -179.904656 1.326439 179.963218 -4.571513 -1.744992 8.917411 -3.729019 7.057341 -28.620619 9.288399 5.810529 28.629879 -0.045314 -11.238126 -6.512965 0.000000 0.000000 0.000000 -0.139740 -1.580840 6.914868 -1.866318 0.489289 -28.523229 -1.419572 3.806717 33.554981 7.356979 7.896526 -5.396046 0.000000 0.000000 0.000000 -0.484476 1.136509 -2.255562 -0.885172 -1.161611 -1.277060 -1.050478 -0.942393 9.449118 -0.029854 0.026771 0.016409 -1.507653 0.410170 10.400279 1.305346 -2.658070 -11.970433 0.000000 0.000000 0.000000 0.180713 0.953257 8.290210 -5.796911 -4.333055 3.875708 -62.764528 -3.240445 9.460119 4.945540 -35.163446 5.810223 0.000000 0.000000 0.000000 -3.988755 2.509518 7.561686 29.809435 -0.520189 5.558075 52.230340 4.553492 16.566178 -5.685143 23.903244 -5.373102 0.000000 0.000000 0.000000 
-16.242235 80.900772 76.659012 -179.937085 1.311550 -179.982807 -4.628856 -1.796557 8.629019 -3.968395 6.841625 -28.571853 9.372827 5.983770 28.643945 0.074687 -11.094585 -6.433196 0.000000 0.000000 0.000000 0.008098 -1.424945 6.732573 -2.213314 -0.024586 -29.111390 -1.360198 3.976947 34.401928 7.588434 8.071817 -4.939251 0.000000 0.000000 0.000000 -0.428976 1.140882 -2.357846 -0.856791 -1.152156 -0.802681 -1.228638 -0.943872 9.236713 0.011585 0.036267 0.031612 -1.725273 0.376983 10.369120 1.128253 -2.762225 -12.182039 0.000000 0.000000 0.000000 -0.013979 0.931251 8.258798 -5.696665 -4.747198 3.900079 -61.775892 -5.036204 9.198437 4.836167 -36.270791 5.739673 0.000000 0.000000 0.000000 -4.215761 2.522018 7.448343 29.724778 -0.290776 5.686040 52.025230 5.292579 16.467415 -5.806665 25.004969 -5.513712 0.000000 0.000000 0.000000 
-16.493170 80.890221 76.845917 179.982247 1.325092 179.967493 -4.752592 -1.784148 8.509706 -4.084159 6.671434 -28.531138 9.431112 6.169307 28.608433 0.200358 -10.932609 -6.358425 0.000000 0.000000 0.000000 0.166094 -1.181904 6.700596 -2.528752 -0.375806 -29.918684 -1.246054 4.157997 35.542327 7.412523 7.912620 -4.437454 0.000000 0.000000 0.000000 -0.436331 1.178002 -2.318726 -0.917560 -1.183538 -0.392086 -1.408014 -0.934556 9.108838 -0.011732 0.020909 0.029159 -1.856159 0.502905 10.257468 0.969327 -2.941203 -12.398353 0.000000 0.000000 0.000000 -0.138596 0.894263 8.106131 -5.594421 -5.099474 4.071615 -60.621255 -6.544173 8.706309 4.532008 -37.594495 5.892017 0.000000 0.000000 0.000000 -4.348589 2.530508 7.297213 29.686249 -0.186430 5.769858 51.913717 5.935482 16.453057 -5.873288 26.172778 -5.459252 0.000000 0.000000 0.000000 
-16.656282 80.868935 76.962784 179.978517 1.369839 179.970731 -4.815999 -1.570651 8.438743 -4.169591 6.439345 -28.581972 9.539373 6.248181 28.628415 0.100490 -10.818362 -6.272887 0.000000 0.000000 0.000000 -0.308965 -1.161853 6.730630 -1.987817 0.044154 -30.856616 -1.414756 3.972711 36.749269 6.977195 7.619107 -4.074513 0.000000 0.000000 0.000000 -0.458574 1.252948 -2.258346 -0.989054 -1.251041 -0.039451 -1.505831 -0.939085 8.936900 -0.047601 0.009574 0.030414 -1.979798 0.622261 10.181068 0.841414 -3.198890 -12.619382 0.000000 0.000000 0.000000 -0.221544 0.976696 7.990909 -5.325161 -5.478285 4.205789 -59.386582 -7.857550 8.318084 4.350610 -38.913989 5.885634 0.000000 0.000000 0.000000 -4.431542 2.476616 7.219289 29.644271 -0.002070 5.805026 51.880249 6.531860 16.506364 -5.900462 27.302419 -5.429714 0.000000 0.000000 0.000000 
-16.715275 80.852257 77.011238 179.989090 1.367848 179.965854 -4.837788 -1.363455 8.470386 -4.158829 6.006045 -28.615516 9.704858 6.340795 28.594792 0.050968 -10.756977 -6.243231 0.000000 0.000000 0.000000 -0.353433 -1.083415 6.780441 -1.548764 0.217485 -31.975056 -1.495107 3.825057 38.294736 6.270818 7.146984 -4.195937 0.000000 0.000000 0.000000 -0.510478 1.377109 -2.148935 -1.113952 -1.294177 0.246489 -1.528682 -0.889777 8.741280 0.044238 0.032833 0.042238 -2.126441 0.537307 10.027399 0.768992 -3.330617 -12.874048 0.000000 0.000000 0.000000 -0.392554 1.039715 7.898712 -5.168208 -5.948645 4.328319 -58.189079 -9.017291 7.844958 4.146820 -39.888435 5.889971 0.000000 0.000000 0.000000 -4.577156 2.500781 6.974683 29.639555 -0.183348 5.794350 51.972805 6.952338 16.733552 -5.970286 28.140431 -5.423440 0.000000 0.000000 0.000000 
-16.711813 80.828690 76.979332 -179.972971 1.291443 -179.986386 -4.768812 -1.214423 8.539537 -4.146835 5.469668 -28.620402 9.894508 6.443950 28.493360 -0.340003 -10.523462 -6.198006 0.000000 0.000000 0.000000 -0.436834 -1.193642 6.791298 -0.840784 0.666905 -33.026502 -1.511283 3.395535 39.355055 5.767638 6.931664 -4.386475 0.000000 0.000000 0.000000 -0.511464 1.394663 -2.023786 -1.286217 -1.384575 0.478161 -1.506394 -0.898149 8.523854 0.009023 -0.006500 0.052667 -2.113974 0.505706 9.860928 0.743926 -3.453810 -13.097473 0.000000 0.000000 0.000000 -0.387233 1.085386 7.604342 -5.171488 -6.202963 4.492453 -57.336856 -9.886018 7.356357 4.080467 -40.428614 5.815674 0.000000 0.000000 0.000000 -4.525368 2.641948 6.793415 29.626379 -0.152211 5.864411 52.147002 7.206136 17.111852 -6.106108 28.748683 -5.479201 0.000000 0.000000 0.000000 
-16.659050 80.800751 76.841415 -179.984883 0.980719 179.986823 -4.806213 -1.278213 8.684694 -4.029275 4.930962 -28.557161 10.171712 6.677413 28.444673 -0.658789 -10.519041 -6.365828 0.000000 0.000000 0.000000 -0.361896 -1.413766 6.900363 -0.135095 0.836565 -33.794659 -1.363681 3.245587 39.498981 5.700676 7.268304 -4.709944 0.000000 0.000000 0.000000 -0.506050 1.380710 -1.819533 -1.519975 -1.397247 0.708764 -1.445534 -0.846238 8.318199 -0.017081 -0.001338 0.014641 -2.013793 0.632752 9.655271 0.837797 -3.993919 -13.370246 0.000000 0.000000 0.000000 -0.285687 1.077290 7.424813 -5.203285 -6.538756 4.526910 -56.642291 -10.621736 6.774749 4.211523 -40.549375 5.571579 0.000000 0.000000 0.000000 -4.418877 2.659095 6.549702 29.643407 -0.386717 5.781914 52.443128 7.218304 17.465507 -6.154880 29.051510 -5.348227 0.000000 0.000000 0.000000 
-16.604038 80.778290 76.619812 179.983216 0.644914 -179.957562 -4.550292 -1.347821 8.882526 -4.196551 4.418553 -28.487001 10.300074 6.935707 28.325682 -0.836354 -10.428953 -6.495568 0.000000 0.000000 0.000000 -0.169783 -1.527055 7.055654 0.397365 0.929948 -34.447048 -1.198083 3.380911 38.783252 5.727124 7.707459 -4.831745 0.000000 0.000000 0.000000 -0.444590 1.335262 -1.675697 -1.792612 -1.387028 0.885811 -1.360216 -0.821089 8.066317 -0.013235 -0.020852 -0.030168 -1.912610 0.614095 9.447898 0.930385 -3.803905 -13.658034 0.000000 0.000000 0.000000 -0.210818 1.165262 7.242049 -5.308148 -6.734619 4.615461 -56.291725 -11.141780 6.006264 4.136292 -40.528727 5.593438 0.000000 0.000000 0.000000 -4.306083 2.694470 6.380148 29.560560 -0.506361 5.702141 52.832053 7.112237 17.952847 -6.234404 29.138851 -5.329045 0.000000 0.000000 0.000000 
-16.564810 80.767952 76.360184 179.964324 0.101302 -179.999144 -4.383215 -1.447021 9.100530 -4.302216 3.983057 -28.360467 10.352696 7.124583 28.191539 -1.035321 -10.425009 -6.671886 0.000000 0.000000 0.000000 0.114870 -1.690512 7.305990 0.824540 0.968056 -35.055905 -1.150618 3.313544 37.671540 5.492381 7.799034 -4.441213 0.000000 0.000000 0.000000 -0.326979 1.252354 -1.494233 -2.032423 -1.327794 1.084371 -1.261434 -0.765098 7.847026 0.009903 0.003811 0.002639 -1.828875 0.730087 9.109609 1.120111 -3.857815 -13.959025 0.000000 0.000000 0.000000 -0.136426 1.190758 6.965520 -5.435920 -6.822480 4.562236 -56.119491 -11.204421 5.591416 4.258186 -40.330761 5.485579 0.000000 0.000000 0.000000 -4.259065 2.724390 6.053486 29.495533 -0.696606 5.722929 53.302345 6.915410 18.319114 -6.298373 29.009272 -5.414079 0.000000 0.000000 0.000000 
-16.526632 80.760162 76.033859 179.950855 -0.572537 179.960936 -4.247262 -1.565397 9.359325 -4.391013 3.657374 -28.225118 10.257120 6.991458 28.012802 -1.165406 -10.408413 -6.925656 0.000000 0.000000 0.000000 0.430150 -1.962855 7.592779 1.209096 0.985218 -35.596996 -1.171112 3.280697 36.432188 5.187443 7.927766 -4.027217 0.000000 0.000000 0.000000 -0.137946 1.107849 -1.302612 -2.207868 -1.241528 1.282117 -1.185757 -0.736055 7.641823 0.002031 -0.001942 -0.027711 -1.745663 0.707211 8.838311 1.340907 -3.906648 -14.248353 0.000000 0.000000 0.000000 -0.075504 1.240981 6.724419 -5.513303 -6.729873 4.526885 -56.198752 -10.935164 5.344403 4.273715 -40.040495 5.685219 0.000000 0.000000 0.000000 -4.177568 2.744668 5.830158 29.344094 -0.788198 5.710794 53.796465 6.699360 18.801520 -6.277206 28.676092 -5.104611 0.000000 0.000000 0.000000 
-16.493301 80.736450 75.625847 179.932495 -1.442903 179.967411 -4.060865 -1.830917 9.608258 -4.423851 3.215042 -28.024550 10.134507 7.113053 27.966397 -1.317772 -10.423595 -7.245669 0.000000 0.000000 0.000000 0.692265 -2.311039 7.846977 1.573887 0.867440 -36.093616 -1.141926 3.297695 35.263550 4.975380 7.773600 -3.745068 0.000000 0.000000 0.000000 0.077820 0.876980 -1.152780 -2.308891 -1.157270 1.430965 -1.154908 -0.742744 7.450756 0.005688 -0.029683 -0.017050 -1.695391 0.729762 8.569750 1.582509 -3.868102 -14.470915 0.000000 0.000000 0.000000 -0.056462 1.269448 6.443013 -5.615876 -6.568312 4.510173 -56.351438 -10.422181 5.603246 4.394668 -39.668113 5.816257 0.000000 0.000000 0.000000 -4.179204 2.804282 5.565427 29.169221 -0.833973 5.750749 54.299703 6.404502 19.333856 -6.318959 28.288615 -5.025848 0.000000 0.000000 0.000000 
